<?xml version="1.0" encoding="utf-8"?>
<!-- Generator: Adobe Illustrator 25.2.3, SVG Export Plug-In . SVG Version: 6.00 Build 0)  -->
<svg version="1.1" id="Слой_1" xmlns="http://www.w3.org/2000/svg" xmlns:xlink="http://www.w3.org/1999/xlink" x="0px" y="0px"
	 viewBox="0 0 61.25 52.51" style="enable-background:new 0 0 61.25 52.51;" xml:space="preserve">
<style type="text/css">
	.st0{fill:url(#SVGID_1_);}
</style>
<linearGradient id="SVGID_1_" gradientUnits="userSpaceOnUse" x1="-28.2996" y1="23.998" x2="85.8286" y2="23.998">
	<stop  offset="0" style="stop-color:#CB0C59"/>
	<stop  offset="0.3436" style="stop-color:#943C77"/>
	<stop  offset="1" style="stop-color:#22A0B6"/>
</linearGradient>
<path class="st0" d="M57.8,15.17H16.37c-1.49,0-2.21,0.62-2.21,1.87v13.87c0,1.3,0.72,1.92,2.21,1.92h28.51
	c1.44,0,2.16-0.62,2.16-1.82V20.49h11.81v13.39c0,6.19-3.84,9.31-11.57,9.31H13.97c-7.73,0-11.57-3.12-11.57-9.41V14.16
	c0-6.24,3.84-9.36,11.57-9.36H57.8V15.17z M19.92,24.26h-2.09c-0.24,0-0.36,0.1-0.36,0.31v3.21h-1.58v-3.2
	c0-1.05,0.65-1.57,1.95-1.57h2.09V24.26z M26.86,27.77c0,1.05-0.65,1.57-1.95,1.57h-4.19v-1.32h4.04c0.34,0,0.51-0.15,0.51-0.45
	V27.1h-3.44c-0.91,0-1.36-0.42-1.36-1.25v-2.83h1.57v2.44c0,0.22,0.12,0.32,0.37,0.32h2.86v-2.76h1.58V27.77z M36.1,27.78h-1.58
	v-3.21c0-0.21-0.12-0.31-0.36-0.31h-1.47v3.53h-1.59v-3.53h-1.84v3.53h-1.57v-4.77h6.47c1.3,0,1.95,0.52,1.95,1.57V27.78z
	 M43.3,27.77c0,1.05-0.65,1.57-1.95,1.57h-4.19v-1.32h4.04c0.34,0,0.51-0.15,0.51-0.45V27.1h-3.44c-0.91,0-1.36-0.42-1.36-1.25
	v-2.83h1.57v2.44c0,0.22,0.12,0.32,0.37,0.32h2.86v-2.76h1.58V27.77z M45.68,27.78h-1.57v-6.56h1.57V27.78z"/>
</svg>
